<svg version="1.1" id="Layer_1" xmlns="http://www.w3.org/2000/svg" xmlns:xlink="http://www.w3.org/1999/xlink" x="0px" y="0px"
	 width="100%" viewBox="0 0 148 148" enable-background="new 0 0 148 148" xml:space="preserve">
<path fill="#FFFDFD" opacity="1.000000" stroke="none" 
	d="
M149.000000,50.000000 
	C149.000000,83.305588 149.000000,116.111176 149.000000,148.958374 
	C99.736130,148.958374 50.472221,148.958374 1.104156,148.958374 
	C1.104156,99.777992 1.104156,50.555687 1.104156,1.166691 
	C50.332867,1.166691 99.666389,1.166691 149.000000,1.166691 
	C149.000000,17.194082 149.000000,33.347042 149.000000,50.000000 
M78.349892,81.001198 
	C81.531036,63.384174 84.712189,45.767147 87.923676,27.982088 
	C94.888512,28.326077 101.745598,26.951212 105.880531,34.859600 
	C108.843086,32.865948 111.662003,31.194481 114.217857,29.187954 
	C116.982719,27.017336 116.578682,24.757671 113.246849,23.858004 
	C105.248413,21.698250 97.225304,19.464018 89.068260,18.159519 
	C86.648674,17.772570 83.403099,19.943937 81.164444,21.730494 
	C78.689789,23.705387 76.936470,26.584148 74.704239,29.267279 
	C71.854988,25.799597 69.522491,22.762253 66.951424,19.942425 
	C66.084007,18.991076 64.591927,18.011538 63.419514,18.051353 
	C60.268764,18.158358 57.089748,18.598879 54.006210,19.285404 
	C46.761589,20.898363 39.566105,22.732019 32.350735,24.476360 
	C32.241257,25.137062 32.131783,25.797764 32.022305,26.458466 
	C35.871662,29.353477 39.721020,32.248489 43.796509,35.313568 
	C47.797905,26.387068 54.911922,28.501760 61.533325,28.051434 
	C65.575966,50.463989 69.541328,72.448059 73.506683,94.432129 
	C77.787140,90.895050 77.120682,86.089684 78.349892,81.001198 
M110.680038,13.824906 
	C82.711769,5.688880 55.248650,7.154760 27.701843,17.604200 
	C28.843136,19.697506 29.616728,21.116390 30.509359,22.753614 
	C60.104984,11.035017 89.587402,11.101717 119.164612,22.803354 
	C120.011978,20.948957 120.676193,19.495361 121.553497,17.575445 
	C117.947594,16.301474 114.703453,15.155315 110.680038,13.824906 
M73.857254,138.869400 
	C72.343346,139.357544 70.829445,139.845703 69.315536,140.333847 
	C69.417450,140.689835 69.519371,141.045807 69.621284,141.401794 
	C74.316963,141.401794 79.012642,141.401794 83.814514,141.401794 
	C83.814514,138.672363 83.814514,136.250000 83.814514,133.606033 
	C79.773895,133.395309 75.969383,133.196899 72.164871,132.998505 
	C72.124367,132.326279 72.083862,131.654053 72.043365,130.981842 
	C75.635147,130.546188 79.226929,130.110535 82.818710,129.674896 
	C82.810410,129.501556 82.802116,129.328217 82.793823,129.154877 
	C78.266891,129.154877 73.739952,129.154877 69.261520,129.154877 
	C69.261520,131.500687 69.261520,133.720749 69.261520,136.802673 
	C73.506523,136.802673 77.377922,136.802673 81.249321,136.802673 
	C81.235565,137.353424 81.221809,137.904190 81.208054,138.454941 
	C79.049118,138.592804 76.890175,138.730667 73.857254,138.869400 
M122.976463,137.087799 
	C123.417358,138.652023 123.858253,140.216248 124.299156,141.780472 
	C124.771042,141.661438 125.242935,141.542404 125.714828,141.423355 
	C125.714828,138.894073 125.714828,136.364777 125.714828,133.775452 
	C120.840065,133.775452 116.141586,133.775452 110.995750,133.775452 
	C111.260033,136.707077 111.481995,139.169312 111.703957,141.631561 
	C112.244781,141.618286 112.785606,141.605011 113.326431,141.591736 
	C113.691017,139.944382 114.055603,138.297028 114.477554,136.390488 
	C117.126503,136.390488 119.735657,136.390488 122.976463,137.087799 
M24.371992,129.961395 
	C26.197214,130.524719 28.022436,131.088028 29.826984,131.644974 
	C30.118681,135.047394 30.405176,138.389145 30.691671,141.730896 
	C31.342649,141.710693 31.993629,141.690491 32.644608,141.670288 
	C32.881596,138.224960 33.118584,134.779633 33.328251,131.731461 
	C35.748028,130.918350 37.823753,130.220856 39.899479,129.523346 
	C39.749790,128.873581 39.600101,128.223801 39.450413,127.574013 
	C34.285198,128.108627 29.119986,128.643234 24.371992,129.961395 
M97.603317,138.984192 
	C94.775551,139.414459 93.754173,138.245743 93.937294,135.382736 
	C94.090584,132.986115 93.709641,130.555298 93.565254,128.139633 
	C93.040718,128.166397 92.516190,128.193161 91.991653,128.219925 
	C91.991653,132.593231 91.991653,136.966537 91.991653,141.931625 
	C96.393570,140.621933 101.072708,143.086380 104.831261,138.984528 
	C102.729675,138.984528 100.628082,138.984528 97.603317,138.984192 
M124.564224,130.417755 
	C125.025589,129.845764 125.486961,129.273758 126.137779,128.466888 
	C120.935783,128.466888 116.206909,128.466888 111.478035,128.466888 
	C115.188431,132.074142 119.610100,130.647293 124.564224,130.417755 
M57.033073,130.949707 
	C58.542057,130.466705 60.051041,129.983688 61.560024,129.500671 
	C61.459854,129.171082 61.359688,128.841492 61.259521,128.511902 
	C56.561295,128.511902 51.863071,128.511902 47.164848,128.511902 
	C47.119488,129.101608 47.074123,129.691315 47.028763,130.281036 
	C50.075115,130.504211 53.121464,130.727386 57.033073,130.949707 
M55.388973,133.496918 
	C52.617142,133.496918 49.845306,133.496918 47.073475,133.496918 
	C47.088669,134.046402 47.103859,134.595901 47.119053,135.145386 
	C51.733829,135.145386 56.348606,135.145386 60.963383,135.145386 
	C60.975830,134.690399 60.988277,134.235413 61.000725,133.780411 
	C59.433327,133.686005 57.865929,133.591583 55.388973,133.496918 
M59.737961,141.257065 
	C60.219154,140.729919 60.700348,140.202759 61.446861,139.384949 
	C56.341015,139.384949 51.796989,139.384949 47.252964,139.384949 
	C47.227703,140.010818 47.202442,140.636673 47.177181,141.262543 
	C51.080650,141.329346 54.984119,141.396164 59.737961,141.257065 
z"/>
<path fill="#E8242A" opacity="1.000000" stroke="none" 
	d="
M78.269272,81.423668 
	C77.120682,86.089684 77.787140,90.895050 73.506683,94.432129 
	C69.541328,72.448059 65.575966,50.463989 61.533325,28.051434 
	C54.911922,28.501760 47.797905,26.387068 43.796509,35.313568 
	C39.721020,32.248489 35.871662,29.353477 32.022305,26.458466 
	C32.131783,25.797764 32.241257,25.137062 32.350735,24.476360 
	C39.566105,22.732019 46.761589,20.898363 54.006210,19.285404 
	C57.089748,18.598879 60.268764,18.158358 63.419514,18.051353 
	C64.591927,18.011538 66.084007,18.991076 66.951424,19.942425 
	C69.522491,22.762253 71.854988,25.799597 74.704239,29.267279 
	C76.936470,26.584148 78.689789,23.705387 81.164444,21.730494 
	C83.403099,19.943937 86.648674,17.772570 89.068260,18.159519 
	C97.225304,19.464018 105.248413,21.698250 113.246849,23.858004 
	C116.578682,24.757671 116.982719,27.017336 114.217857,29.187954 
	C111.662003,31.194481 108.843086,32.865948 105.880531,34.859600 
	C101.745598,26.951212 94.888512,28.326077 87.923676,27.982088 
	C84.712189,45.767147 81.531036,63.384174 78.269272,81.423668 
z"/>
<path fill="#E9282E" opacity="1.000000" stroke="none" 
	d="
M111.069679,13.917031 
	C114.703453,15.155315 117.947594,16.301474 121.553497,17.575445 
	C120.676193,19.495361 120.011978,20.948957 119.164612,22.803354 
	C89.587402,11.101717 60.104984,11.035017 30.509359,22.753614 
	C29.616728,21.116390 28.843136,19.697506 27.701843,17.604200 
	C55.248650,7.154760 82.711769,5.688880 111.069679,13.917031 
z"/>
<path fill="#EB4045" opacity="1.000000" stroke="none" 
	d="
M74.294243,138.868958 
	C76.890175,138.730667 79.049118,138.592804 81.208054,138.454941 
	C81.221809,137.904190 81.235565,137.353424 81.249321,136.802673 
	C77.377922,136.802673 73.506523,136.802673 69.261520,136.802673 
	C69.261520,133.720749 69.261520,131.500687 69.261520,129.154877 
	C73.739952,129.154877 78.266891,129.154877 82.793823,129.154877 
	C82.802116,129.328217 82.810410,129.501556 82.818710,129.674896 
	C79.226929,130.110535 75.635147,130.546188 72.043365,130.981842 
	C72.083862,131.654053 72.124367,132.326279 72.164871,132.998505 
	C75.969383,133.196899 79.773895,133.395309 83.814514,133.606033 
	C83.814514,136.250000 83.814514,138.672363 83.814514,141.401794 
	C79.012642,141.401794 74.316963,141.401794 69.621284,141.401794 
	C69.519371,141.045807 69.417450,140.689835 69.315536,140.333847 
	C70.829445,139.845703 72.343346,139.357544 74.294243,138.868958 
z"/>
<path fill="#EB3A40" opacity="1.000000" stroke="none" 
	d="
M122.660637,136.739136 
	C119.735657,136.390488 117.126503,136.390488 114.477554,136.390488 
	C114.055603,138.297028 113.691017,139.944382 113.326431,141.591736 
	C112.785606,141.605011 112.244781,141.618286 111.703957,141.631561 
	C111.481995,139.169312 111.260033,136.707077 110.995750,133.775452 
	C116.141586,133.775452 120.840065,133.775452 125.714828,133.775452 
	C125.714828,136.364777 125.714828,138.894073 125.714828,141.423355 
	C125.242935,141.542404 124.771042,141.661438 124.299156,141.780472 
	C123.858253,140.216248 123.417358,138.652023 122.660637,136.739136 
z"/>
<path fill="#EC4B4F" opacity="1.000000" stroke="none" 
	d="
M24.163383,129.569611 
	C29.119986,128.643234 34.285198,128.108627 39.450413,127.574013 
	C39.600101,128.223801 39.749790,128.873581 39.899479,129.523346 
	C37.823753,130.220856 35.748028,130.918350 33.328251,131.731461 
	C33.118584,134.779633 32.881596,138.224960 32.644608,141.670288 
	C31.993629,141.690491 31.342649,141.710693 30.691671,141.730896 
	C30.405176,138.389145 30.118681,135.047394 29.826984,131.644974 
	C28.022436,131.088028 26.197214,130.524719 24.163383,129.569611 
z"/>
<path fill="#E91F26" opacity="1.000000" stroke="none" 
	d="
M98.064903,138.984360 
	C100.628082,138.984528 102.729675,138.984528 104.831261,138.984528 
	C101.072708,143.086380 96.393570,140.621933 91.991653,141.931625 
	C91.991653,136.966537 91.991653,132.593231 91.991653,128.219925 
	C92.516190,128.193161 93.040718,128.166397 93.565254,128.139633 
	C93.709641,130.555298 94.090584,132.986115 93.937294,135.382736 
	C93.754173,138.245743 94.775551,139.414459 98.064903,138.984360 
z"/>
<path fill="#EB3D43" opacity="1.000000" stroke="none" 
	d="
M124.174698,130.604584 
	C119.610100,130.647293 115.188431,132.074142 111.478035,128.466888 
	C116.206909,128.466888 120.935783,128.466888 126.137779,128.466888 
	C125.486961,129.273758 125.025589,129.845764 124.174698,130.604584 
z"/>
<path fill="#EB3D43" opacity="1.000000" stroke="none" 
	d="
M56.600445,130.950134 
	C53.121464,130.727386 50.075115,130.504211 47.028763,130.281036 
	C47.074123,129.691315 47.119488,129.101608 47.164848,128.511902 
	C51.863071,128.511902 56.561295,128.511902 61.259521,128.511902 
	C61.359688,128.841492 61.459854,129.171082 61.560024,129.500671 
	C60.051041,129.983688 58.542057,130.466705 56.600445,130.950134 
z"/>
<path fill="#E81118" opacity="1.000000" stroke="none" 
	d="
M55.843750,133.497040 
	C57.865929,133.591583 59.433327,133.686005 61.000725,133.780411 
	C60.988277,134.235413 60.975830,134.690399 60.963383,135.145386 
	C56.348606,135.145386 51.733829,135.145386 47.119053,135.145386 
	C47.103859,134.595901 47.088669,134.046402 47.073475,133.496918 
	C49.845306,133.496918 52.617142,133.496918 55.843750,133.497040 
z"/>
<path fill="#E81B22" opacity="1.000000" stroke="none" 
	d="
M59.312775,141.360016 
	C54.984119,141.396164 51.080650,141.329346 47.177181,141.262543 
	C47.202442,140.636673 47.227703,140.010818 47.252964,139.384949 
	C51.796989,139.384949 56.341015,139.384949 61.446861,139.384949 
	C60.700348,140.202759 60.219154,140.729919 59.312775,141.360016 
z"/>
</svg>